G04 EAGLE Gerber RS-274X export*
G75*
%MOMM*%
%FSLAX34Y34*%
%LPD*%
%IN*%
%IPPOS*%
%AMOC8*
5,1,8,0,0,1.08239X$1,22.5*%
G01*
%ADD10C,0.254000*%


D10*
X0Y0D02*
X1714500Y0D01*
X1714500Y3492500D01*
X0Y3492500D01*
X0Y0D01*
X1666500Y3427460D02*
X1666429Y3426382D01*
X1666288Y3425311D01*
X1666078Y3424251D01*
X1665798Y3423208D01*
X1665451Y3422185D01*
X1665037Y3421187D01*
X1664560Y3420218D01*
X1664019Y3419282D01*
X1663419Y3418384D01*
X1662762Y3417527D01*
X1662049Y3416715D01*
X1661285Y3415951D01*
X1660473Y3415239D01*
X1659616Y3414581D01*
X1658718Y3413981D01*
X1657782Y3413441D01*
X1656813Y3412963D01*
X1655815Y3412549D01*
X1654792Y3412202D01*
X1653749Y3411922D01*
X1652689Y3411712D01*
X1651618Y3411571D01*
X1650540Y3411500D01*
X1649460Y3411500D01*
X1648382Y3411571D01*
X1647311Y3411712D01*
X1646251Y3411922D01*
X1645208Y3412202D01*
X1644185Y3412549D01*
X1643187Y3412963D01*
X1642218Y3413441D01*
X1641282Y3413981D01*
X1640384Y3414581D01*
X1639527Y3415239D01*
X1638715Y3415951D01*
X1637951Y3416715D01*
X1637239Y3417527D01*
X1636581Y3418384D01*
X1635981Y3419282D01*
X1635441Y3420218D01*
X1634963Y3421187D01*
X1634549Y3422185D01*
X1634202Y3423208D01*
X1633922Y3424251D01*
X1633712Y3425311D01*
X1633571Y3426382D01*
X1633500Y3427460D01*
X1633500Y3428540D01*
X1633571Y3429618D01*
X1633712Y3430689D01*
X1633922Y3431749D01*
X1634202Y3432792D01*
X1634549Y3433815D01*
X1634963Y3434813D01*
X1635441Y3435782D01*
X1635981Y3436718D01*
X1636581Y3437616D01*
X1637239Y3438473D01*
X1637951Y3439285D01*
X1638715Y3440049D01*
X1639527Y3440762D01*
X1640384Y3441419D01*
X1641282Y3442019D01*
X1642218Y3442560D01*
X1643187Y3443037D01*
X1644185Y3443451D01*
X1645208Y3443798D01*
X1646251Y3444078D01*
X1647311Y3444288D01*
X1648382Y3444429D01*
X1649460Y3444500D01*
X1650540Y3444500D01*
X1651618Y3444429D01*
X1652689Y3444288D01*
X1653749Y3444078D01*
X1654792Y3443798D01*
X1655815Y3443451D01*
X1656813Y3443037D01*
X1657782Y3442560D01*
X1658718Y3442019D01*
X1659616Y3441419D01*
X1660473Y3440762D01*
X1661285Y3440049D01*
X1662049Y3439285D01*
X1662762Y3438473D01*
X1663419Y3437616D01*
X1664019Y3436718D01*
X1664560Y3435782D01*
X1665037Y3434813D01*
X1665451Y3433815D01*
X1665798Y3432792D01*
X1666078Y3431749D01*
X1666288Y3430689D01*
X1666429Y3429618D01*
X1666500Y3428540D01*
X1666500Y3427460D01*
X81000Y3427460D02*
X80929Y3426382D01*
X80788Y3425311D01*
X80578Y3424251D01*
X80298Y3423208D01*
X79951Y3422185D01*
X79537Y3421187D01*
X79060Y3420218D01*
X78519Y3419282D01*
X77919Y3418384D01*
X77262Y3417527D01*
X76549Y3416715D01*
X75785Y3415951D01*
X74973Y3415239D01*
X74116Y3414581D01*
X73218Y3413981D01*
X72282Y3413441D01*
X71313Y3412963D01*
X70315Y3412549D01*
X69292Y3412202D01*
X68249Y3411922D01*
X67189Y3411712D01*
X66118Y3411571D01*
X65040Y3411500D01*
X63960Y3411500D01*
X62882Y3411571D01*
X61811Y3411712D01*
X60751Y3411922D01*
X59708Y3412202D01*
X58685Y3412549D01*
X57687Y3412963D01*
X56718Y3413441D01*
X55782Y3413981D01*
X54884Y3414581D01*
X54027Y3415239D01*
X53215Y3415951D01*
X52451Y3416715D01*
X51739Y3417527D01*
X51081Y3418384D01*
X50481Y3419282D01*
X49941Y3420218D01*
X49463Y3421187D01*
X49049Y3422185D01*
X48702Y3423208D01*
X48422Y3424251D01*
X48212Y3425311D01*
X48071Y3426382D01*
X48000Y3427460D01*
X48000Y3428540D01*
X48071Y3429618D01*
X48212Y3430689D01*
X48422Y3431749D01*
X48702Y3432792D01*
X49049Y3433815D01*
X49463Y3434813D01*
X49941Y3435782D01*
X50481Y3436718D01*
X51081Y3437616D01*
X51739Y3438473D01*
X52451Y3439285D01*
X53215Y3440049D01*
X54027Y3440762D01*
X54884Y3441419D01*
X55782Y3442019D01*
X56718Y3442560D01*
X57687Y3443037D01*
X58685Y3443451D01*
X59708Y3443798D01*
X60751Y3444078D01*
X61811Y3444288D01*
X62882Y3444429D01*
X63960Y3444500D01*
X65040Y3444500D01*
X66118Y3444429D01*
X67189Y3444288D01*
X68249Y3444078D01*
X69292Y3443798D01*
X70315Y3443451D01*
X71313Y3443037D01*
X72282Y3442560D01*
X73218Y3442019D01*
X74116Y3441419D01*
X74973Y3440762D01*
X75785Y3440049D01*
X76549Y3439285D01*
X77262Y3438473D01*
X77919Y3437616D01*
X78519Y3436718D01*
X79060Y3435782D01*
X79537Y3434813D01*
X79951Y3433815D01*
X80298Y3432792D01*
X80578Y3431749D01*
X80788Y3430689D01*
X80929Y3429618D01*
X81000Y3428540D01*
X81000Y3427460D01*
X1666500Y63960D02*
X1666429Y62882D01*
X1666288Y61811D01*
X1666078Y60751D01*
X1665798Y59708D01*
X1665451Y58685D01*
X1665037Y57687D01*
X1664560Y56718D01*
X1664019Y55782D01*
X1663419Y54884D01*
X1662762Y54027D01*
X1662049Y53215D01*
X1661285Y52451D01*
X1660473Y51739D01*
X1659616Y51081D01*
X1658718Y50481D01*
X1657782Y49941D01*
X1656813Y49463D01*
X1655815Y49049D01*
X1654792Y48702D01*
X1653749Y48422D01*
X1652689Y48212D01*
X1651618Y48071D01*
X1650540Y48000D01*
X1649460Y48000D01*
X1648382Y48071D01*
X1647311Y48212D01*
X1646251Y48422D01*
X1645208Y48702D01*
X1644185Y49049D01*
X1643187Y49463D01*
X1642218Y49941D01*
X1641282Y50481D01*
X1640384Y51081D01*
X1639527Y51739D01*
X1638715Y52451D01*
X1637951Y53215D01*
X1637239Y54027D01*
X1636581Y54884D01*
X1635981Y55782D01*
X1635441Y56718D01*
X1634963Y57687D01*
X1634549Y58685D01*
X1634202Y59708D01*
X1633922Y60751D01*
X1633712Y61811D01*
X1633571Y62882D01*
X1633500Y63960D01*
X1633500Y65040D01*
X1633571Y66118D01*
X1633712Y67189D01*
X1633922Y68249D01*
X1634202Y69292D01*
X1634549Y70315D01*
X1634963Y71313D01*
X1635441Y72282D01*
X1635981Y73218D01*
X1636581Y74116D01*
X1637239Y74973D01*
X1637951Y75785D01*
X1638715Y76549D01*
X1639527Y77262D01*
X1640384Y77919D01*
X1641282Y78519D01*
X1642218Y79060D01*
X1643187Y79537D01*
X1644185Y79951D01*
X1645208Y80298D01*
X1646251Y80578D01*
X1647311Y80788D01*
X1648382Y80929D01*
X1649460Y81000D01*
X1650540Y81000D01*
X1651618Y80929D01*
X1652689Y80788D01*
X1653749Y80578D01*
X1654792Y80298D01*
X1655815Y79951D01*
X1656813Y79537D01*
X1657782Y79060D01*
X1658718Y78519D01*
X1659616Y77919D01*
X1660473Y77262D01*
X1661285Y76549D01*
X1662049Y75785D01*
X1662762Y74973D01*
X1663419Y74116D01*
X1664019Y73218D01*
X1664560Y72282D01*
X1665037Y71313D01*
X1665451Y70315D01*
X1665798Y69292D01*
X1666078Y68249D01*
X1666288Y67189D01*
X1666429Y66118D01*
X1666500Y65040D01*
X1666500Y63960D01*
X81000Y63960D02*
X80929Y62882D01*
X80788Y61811D01*
X80578Y60751D01*
X80298Y59708D01*
X79951Y58685D01*
X79537Y57687D01*
X79060Y56718D01*
X78519Y55782D01*
X77919Y54884D01*
X77262Y54027D01*
X76549Y53215D01*
X75785Y52451D01*
X74973Y51739D01*
X74116Y51081D01*
X73218Y50481D01*
X72282Y49941D01*
X71313Y49463D01*
X70315Y49049D01*
X69292Y48702D01*
X68249Y48422D01*
X67189Y48212D01*
X66118Y48071D01*
X65040Y48000D01*
X63960Y48000D01*
X62882Y48071D01*
X61811Y48212D01*
X60751Y48422D01*
X59708Y48702D01*
X58685Y49049D01*
X57687Y49463D01*
X56718Y49941D01*
X55782Y50481D01*
X54884Y51081D01*
X54027Y51739D01*
X53215Y52451D01*
X52451Y53215D01*
X51739Y54027D01*
X51081Y54884D01*
X50481Y55782D01*
X49941Y56718D01*
X49463Y57687D01*
X49049Y58685D01*
X48702Y59708D01*
X48422Y60751D01*
X48212Y61811D01*
X48071Y62882D01*
X48000Y63960D01*
X48000Y65040D01*
X48071Y66118D01*
X48212Y67189D01*
X48422Y68249D01*
X48702Y69292D01*
X49049Y70315D01*
X49463Y71313D01*
X49941Y72282D01*
X50481Y73218D01*
X51081Y74116D01*
X51739Y74973D01*
X52451Y75785D01*
X53215Y76549D01*
X54027Y77262D01*
X54884Y77919D01*
X55782Y78519D01*
X56718Y79060D01*
X57687Y79537D01*
X58685Y79951D01*
X59708Y80298D01*
X60751Y80578D01*
X61811Y80788D01*
X62882Y80929D01*
X63960Y81000D01*
X65040Y81000D01*
X66118Y80929D01*
X67189Y80788D01*
X68249Y80578D01*
X69292Y80298D01*
X70315Y79951D01*
X71313Y79537D01*
X72282Y79060D01*
X73218Y78519D01*
X74116Y77919D01*
X74973Y77262D01*
X75785Y76549D01*
X76549Y75785D01*
X77262Y74973D01*
X77919Y74116D01*
X78519Y73218D01*
X79060Y72282D01*
X79537Y71313D01*
X79951Y70315D01*
X80298Y69292D01*
X80578Y68249D01*
X80788Y67189D01*
X80929Y66118D01*
X81000Y65040D01*
X81000Y63960D01*
X1666500Y1745710D02*
X1666429Y1744632D01*
X1666288Y1743561D01*
X1666078Y1742501D01*
X1665798Y1741458D01*
X1665451Y1740435D01*
X1665037Y1739437D01*
X1664560Y1738468D01*
X1664019Y1737532D01*
X1663419Y1736634D01*
X1662762Y1735777D01*
X1662049Y1734965D01*
X1661285Y1734201D01*
X1660473Y1733489D01*
X1659616Y1732831D01*
X1658718Y1732231D01*
X1657782Y1731691D01*
X1656813Y1731213D01*
X1655815Y1730799D01*
X1654792Y1730452D01*
X1653749Y1730172D01*
X1652689Y1729962D01*
X1651618Y1729821D01*
X1650540Y1729750D01*
X1649460Y1729750D01*
X1648382Y1729821D01*
X1647311Y1729962D01*
X1646251Y1730172D01*
X1645208Y1730452D01*
X1644185Y1730799D01*
X1643187Y1731213D01*
X1642218Y1731691D01*
X1641282Y1732231D01*
X1640384Y1732831D01*
X1639527Y1733489D01*
X1638715Y1734201D01*
X1637951Y1734965D01*
X1637239Y1735777D01*
X1636581Y1736634D01*
X1635981Y1737532D01*
X1635441Y1738468D01*
X1634963Y1739437D01*
X1634549Y1740435D01*
X1634202Y1741458D01*
X1633922Y1742501D01*
X1633712Y1743561D01*
X1633571Y1744632D01*
X1633500Y1745710D01*
X1633500Y1746790D01*
X1633571Y1747868D01*
X1633712Y1748939D01*
X1633922Y1749999D01*
X1634202Y1751042D01*
X1634549Y1752065D01*
X1634963Y1753063D01*
X1635441Y1754032D01*
X1635981Y1754968D01*
X1636581Y1755866D01*
X1637239Y1756723D01*
X1637951Y1757535D01*
X1638715Y1758299D01*
X1639527Y1759012D01*
X1640384Y1759669D01*
X1641282Y1760269D01*
X1642218Y1760810D01*
X1643187Y1761287D01*
X1644185Y1761701D01*
X1645208Y1762048D01*
X1646251Y1762328D01*
X1647311Y1762538D01*
X1648382Y1762679D01*
X1649460Y1762750D01*
X1650540Y1762750D01*
X1651618Y1762679D01*
X1652689Y1762538D01*
X1653749Y1762328D01*
X1654792Y1762048D01*
X1655815Y1761701D01*
X1656813Y1761287D01*
X1657782Y1760810D01*
X1658718Y1760269D01*
X1659616Y1759669D01*
X1660473Y1759012D01*
X1661285Y1758299D01*
X1662049Y1757535D01*
X1662762Y1756723D01*
X1663419Y1755866D01*
X1664019Y1754968D01*
X1664560Y1754032D01*
X1665037Y1753063D01*
X1665451Y1752065D01*
X1665798Y1751042D01*
X1666078Y1749999D01*
X1666288Y1748939D01*
X1666429Y1747868D01*
X1666500Y1746790D01*
X1666500Y1745710D01*
X81000Y1745710D02*
X80929Y1744632D01*
X80788Y1743561D01*
X80578Y1742501D01*
X80298Y1741458D01*
X79951Y1740435D01*
X79537Y1739437D01*
X79060Y1738468D01*
X78519Y1737532D01*
X77919Y1736634D01*
X77262Y1735777D01*
X76549Y1734965D01*
X75785Y1734201D01*
X74973Y1733489D01*
X74116Y1732831D01*
X73218Y1732231D01*
X72282Y1731691D01*
X71313Y1731213D01*
X70315Y1730799D01*
X69292Y1730452D01*
X68249Y1730172D01*
X67189Y1729962D01*
X66118Y1729821D01*
X65040Y1729750D01*
X63960Y1729750D01*
X62882Y1729821D01*
X61811Y1729962D01*
X60751Y1730172D01*
X59708Y1730452D01*
X58685Y1730799D01*
X57687Y1731213D01*
X56718Y1731691D01*
X55782Y1732231D01*
X54884Y1732831D01*
X54027Y1733489D01*
X53215Y1734201D01*
X52451Y1734965D01*
X51739Y1735777D01*
X51081Y1736634D01*
X50481Y1737532D01*
X49941Y1738468D01*
X49463Y1739437D01*
X49049Y1740435D01*
X48702Y1741458D01*
X48422Y1742501D01*
X48212Y1743561D01*
X48071Y1744632D01*
X48000Y1745710D01*
X48000Y1746790D01*
X48071Y1747868D01*
X48212Y1748939D01*
X48422Y1749999D01*
X48702Y1751042D01*
X49049Y1752065D01*
X49463Y1753063D01*
X49941Y1754032D01*
X50481Y1754968D01*
X51081Y1755866D01*
X51739Y1756723D01*
X52451Y1757535D01*
X53215Y1758299D01*
X54027Y1759012D01*
X54884Y1759669D01*
X55782Y1760269D01*
X56718Y1760810D01*
X57687Y1761287D01*
X58685Y1761701D01*
X59708Y1762048D01*
X60751Y1762328D01*
X61811Y1762538D01*
X62882Y1762679D01*
X63960Y1762750D01*
X65040Y1762750D01*
X66118Y1762679D01*
X67189Y1762538D01*
X68249Y1762328D01*
X69292Y1762048D01*
X70315Y1761701D01*
X71313Y1761287D01*
X72282Y1760810D01*
X73218Y1760269D01*
X74116Y1759669D01*
X74973Y1759012D01*
X75785Y1758299D01*
X76549Y1757535D01*
X77262Y1756723D01*
X77919Y1755866D01*
X78519Y1754968D01*
X79060Y1754032D01*
X79537Y1753063D01*
X79951Y1752065D01*
X80298Y1751042D01*
X80578Y1749999D01*
X80788Y1748939D01*
X80929Y1747868D01*
X81000Y1746790D01*
X81000Y1745710D01*
M02*
