M48
;GenerationSoftware,Autodesk,EAGLE,9.2.2*%
;CreationDate,2018-11-22T10:18:04Z*%
FMAT,2
ICI,OFF
METRIC,TZ,000.000
T5C0.900
T4C1.000
T3C2.000
T2C3.300
T1C4.000
%
G90
M71
T1
X83503Y317183
X159385Y261302
X96202Y9843
X71438Y166688
X54927Y148590
X71755Y147638
X72073Y339408
X157798Y239712
X63500Y13970
X158115Y220980
X48577Y13970
X71438Y181610
X157163Y46037
X86360Y181610
X156845Y64770
X112077Y185420
X158433Y86360
X111760Y10478
X157798Y106997
X66675Y318135
X158115Y121602
X58420Y166370
X160338Y147638
X44132Y339090
X136525Y337820
X159068Y296545
X158750Y281940
X98107Y182880
T2
X6450Y342800
X165000Y6450
X6450Y6450
X165000Y174625
X6450Y174625
X165000Y342800
T3
X86360Y41528
X86360Y29527
X14922Y304998
X129857Y35178
X14922Y297498
X129857Y23177
X14922Y289998
X132968Y73025
X14922Y282498
X83871Y282841
X14922Y274998
X120967Y73025
X14922Y267498
X134303Y114935
X49922Y304680
X49922Y297180
X122302Y114935
X49922Y289680
X120015Y152718
X49922Y282180
X108015Y152718
X49922Y274680
X49922Y267180
X83871Y294841
X60960Y218375
X60960Y206375
X141339Y192606
X153339Y192606
X136143Y259080
X124142Y259080
X137160Y303530
X125160Y303530
X48970Y129737
X13970Y130055
X13970Y122555
X13970Y115055
X13970Y107555
X13970Y100055
X13970Y92555
X48970Y122237
X48970Y114737
X48970Y107237
X48970Y99737
X48970Y92237
X86805Y115442
X86805Y127442
T4
X101759Y257334
X90859Y257331
X6425Y325538
X6425Y333538
X101124Y241459
X127318Y227647
X138218Y227650
X64135Y245110
X75035Y245112
X63817Y64452
X8890Y206374
X8880Y211772
X8890Y217170
X7927Y36830
X7937Y42228
X41116Y327184
X52016Y327186
X99377Y94297
X138484Y158906
X149384Y158909
X95355Y67948
X84455Y67945
X55724Y31486
X52917Y64450
X6107Y163358
X77150Y94402
X77153Y83503
X101126Y230559
X6107Y155358
X55721Y42386
X99379Y83398
X7937Y31432
T5
X3175Y245110
X3235Y250190
X3175Y252730
X3205Y234950
X3205Y247650
X3175Y232410
X3205Y255270
X3175Y237490
X3205Y240030
X3145Y242570
X2223Y77153
X2253Y79693
X2223Y61912
X2253Y59372
X2253Y72073
X2193Y66993
X2223Y69533
X2223Y56832
X2283Y74613
X2253Y64452
M30