M48
METRIC,0000.00
T01C0.9
T02C1.0
T03C2.0
T04C3.3
T05C4.0
%
T01
X+001317Y+024241
X+001321Y+024495
X+001317Y+024749
X+001321Y+025003
X+001314Y+025257
X+001317Y+025511
X+001321Y+025765
X+001324Y+026019
X+001317Y+026273
X+001321Y+026527
X+001225Y+008969
X+001222Y+008715
X+001228Y+008461
X+001225Y+008207
X+001222Y+007953
X+001219Y+007699
X+001225Y+007445
X+001222Y+007191
X+001225Y+006937
X+001222Y+006683
T02
X+011176Y+026733
X+010086Y+026733
X+011112Y+025146
X+011113Y+024056
X+013732Y+023765
X+014822Y+023765
X+008503Y+025511
X+007413Y+025511
X+001889Y+022717
X+001888Y+022177
X+001889Y+021638
X+001611Y+017336
X+001611Y+016536
X+008715Y+010440
X+008715Y+009350
X+009446Y+007795
X+010536Y+007795
X+010938Y+009340
X+010938Y+010430
X+007382Y+007445
X+006292Y+007445
X+006572Y+005239
X+006572Y+004149
X+001794Y+004143
X+001793Y+004683
X+001794Y+005223
X+014848Y+016891
X+015938Y+016891
X+006202Y+033719
X+005112Y+033718
X+001642Y+033554
X+001642Y+034354
T03
X+002492Y+031500
X+002492Y+030750
X+002492Y+030000
X+002492Y+029250
X+002492Y+028500
X+002492Y+027750
X+005992Y+027718
X+005992Y+028468
X+005992Y+029218
X+005992Y+029968
X+005992Y+030718
X+005992Y+031468
X+009387Y+030484
X+009387Y+029284
X+013516Y+031353
X+014716Y+031353
X+014614Y+026908
X+013414Y+026908
X+015134Y+020261
X+016334Y+020261
X+013001Y+016272
X+011801Y+016272
X+009681Y+013744
X+009681Y+012544
X+013230Y+012493
X+014430Y+012493
X+014297Y+008302
X+013097Y+008302
X+013986Y+004518
X+013986Y+003318
X+009636Y+003953
X+009636Y+005153
X+005897Y+010224
X+005897Y+010974
X+005897Y+011724
X+005897Y+012474
X+005897Y+013224
X+005897Y+013974
X+002397Y+014005
X+002397Y+013255
X+002397Y+012505
X+002397Y+011755
X+002397Y+011005
X+002397Y+010255
X+007096Y+021638
X+007096Y+022838
T04
X+017500Y+035280
X+001645Y+035280
X+001645Y+018462
X+017500Y+018462
X+017500Y+001645
X+001645Y+001645
T05
X+008207Y+034941
X+007667Y+032813
X+009350Y+032718
X+005413Y+034909
X+014652Y+034782
X+016907Y+030654
X+016875Y+029194
X+016938Y+027130
X+016780Y+024971
X+016812Y+023098
X+012208Y+019542
X+010811Y+019288
X+009636Y+019161
X+008144Y+019161
X+008144Y+017669
X+006842Y+017637
X+006493Y+015859
X+008175Y+015764
X+017034Y+015764
X+016812Y+013160
X+016780Y+011700
X+016843Y+009636
X+016685Y+007477
X+016716Y+005604
X+012176Y+002048
X+010620Y+001984
X+007350Y+002397
X+005858Y+002397
T00
M30
