%
T1C0.0354F200S100
X005187Y095437
X005199Y096437
X005187Y097437
X005199Y098437
X005175Y099437
X005187Y100437
X005199Y101437
X005211Y102437
X005187Y103437
X005199Y104437
X004824Y035312
X004812Y034312
X004836Y033312
X004824Y032312
X004812Y031312
X004800Y030312
X004824Y029312
X004812Y028312
X004824Y027312
X004812Y026312
T2C0.0394F200S100
X043999Y105250
X039708Y105249
X043750Y099000
X043750Y094708
X054062Y093562
X058353Y093563
X033478Y100438
X029187Y100437
X007437Y089437
X007433Y087312
X007437Y085187
X006342Y068251
X006342Y065101
X034311Y041103
X034312Y036812
X037187Y030687
X041478Y030688
X043063Y036771
X043062Y041062
X029062Y029312
X024771Y029311
X025875Y020625
X025875Y016333
X007062Y016312
X007058Y018437
X007062Y020562
X058458Y066499
X062750Y066499
X024416Y132750
X020125Y132750
X006467Y132101
X006467Y135251
T3C0.0787F200S100
X009812Y124015
X009812Y121062
X009812Y118109
X009812Y115156
X009812Y112204
X009812Y109251
X023592Y109126
X023592Y112079
X023592Y115031
X023592Y117984
X023592Y120937
X023592Y123890
X036957Y120016
X036957Y115292
X053213Y123437
X057937Y123437
X057536Y105937
X052812Y105937
X059582Y079766
X064307Y079766
X051187Y064062
X046463Y064062
X038112Y054111
X038112Y049387
X052088Y049187
X056812Y049187
X056286Y032687
X051562Y032687
X055062Y017786
X055062Y013062
X037937Y015562
X037937Y020286
X023217Y040251
X023217Y043204
X023217Y046156
X023217Y049109
X023217Y052062
X023217Y055015
X009437Y055140
X009437Y052187
X009437Y049234
X009437Y046281
X009437Y043329
X009437Y040376
X027937Y085187
X027937Y089911
T4C0.1299F200S100
X068898Y138898
X006476Y138898
X006476Y072687
X068898Y072687
X068898Y006476
X006476Y006476
T5C0.1575F200S100
X032312Y137562
X030187Y129187
X036812Y128812
X021312Y137437
X057687Y136937
X066562Y120687
X066437Y114937
X066687Y106812
X066062Y098312
X066187Y090937
X048062Y076937
X042562Y075937
X037937Y075437
X032062Y075437
X032062Y069562
X026937Y069437
X025562Y062437
X032187Y062062
X067062Y062062
X066187Y051812
X066062Y046062
X066312Y037937
X065687Y029437
X065812Y022062
X047937Y008062
X041812Y007812
X028937Y009437
X023062Y009437
M30
