G04 DipTrace 3.3.0.1*
G04 Top.gbr*
%MOMM*%
G04 #@! TF.FileFunction,Copper,L1,Top*
G04 #@! TF.Part,Single*
G04 #@! TA.AperFunction,ComponentPad*
%ADD15C,2.0*%
%ADD16C,7.0*%
%ADD18C,5.0*%
%ADD22C,3.0*%
%FSLAX35Y35*%
G04*
G71*
G90*
G75*
G01*
G04 Top*
%LPD*%
D16*
X8207250Y34940750D3*
D15*
X11175870Y26733373D3*
X10085877Y26733123D3*
D22*
X2492250Y31499750D3*
D15*
X1642500Y33553750D3*
D22*
X2492250Y30749750D3*
D15*
X1642500Y34353750D3*
D22*
X2492250Y29999750D3*
D15*
X11112377Y25145873D3*
D22*
X2492250Y29249750D3*
D15*
X11112623Y24055877D3*
D22*
X2492250Y28499750D3*
D15*
X13731753Y23764747D3*
D22*
X2492250Y27749750D3*
D15*
X14821750Y23765000D3*
D22*
X5992250Y31468000D3*
Y30718000D3*
D15*
X7413500Y25511000D3*
D22*
X5992250Y29968000D3*
D15*
X8503500Y25511250D3*
D22*
X5992250Y29218000D3*
D15*
X7381750Y7445250D3*
D22*
X5992250Y28468000D3*
D15*
X6572127Y5238623D3*
D22*
X5992250Y27718000D3*
D15*
X1610750Y16535750D3*
D18*
X9387130Y29284120D3*
D15*
X8715250Y9350250D3*
D18*
X9387130Y30484120D3*
D15*
X8715000Y10440247D3*
D18*
X7096000Y22837500D3*
D15*
X1610750Y17335750D3*
D18*
X7096000Y21637500D3*
D15*
X6291750Y7445000D3*
D18*
X15133880Y20260620D3*
D15*
X6572377Y4148623D3*
D18*
X16333880Y20260620D3*
D15*
X9445500Y7794500D3*
D18*
X14614250Y26908000D3*
D15*
X10535500Y7794750D3*
D18*
X13414250Y26908000D3*
D15*
X15938373Y16890870D3*
D18*
X14716000Y31353000D3*
D15*
X14848377Y16890620D3*
D18*
X13516000Y31353000D3*
D16*
X14652500Y34782000D3*
X16906750Y30654500D3*
X16875000Y29194000D3*
X10810750Y19288000D3*
X16938500Y27130250D3*
D15*
X1317500Y24241000D3*
D16*
X16779750Y24971250D3*
X16811500Y23098000D3*
X8143750Y19161000D3*
X9636000D3*
X12207750Y19542000D3*
X9350250Y32718250D3*
X7667500Y32813500D3*
D15*
X1320500Y25765000D3*
X1323500Y26019000D3*
X1317500Y26273000D3*
X1320500Y26527000D3*
X1317500Y24749000D3*
X1320500Y25003000D3*
X1314500Y25257000D3*
X1317500Y25511000D3*
D16*
X5413250Y34909000D3*
D15*
X1320550Y24495000D3*
D16*
X6842000Y17637000D3*
X8143750Y17668750D3*
D22*
X2397000Y14005500D3*
Y13255500D3*
Y12505500D3*
Y11755500D3*
Y11005500D3*
Y10255500D3*
X5897000Y13973750D3*
Y13223750D3*
Y12473750D3*
Y11723750D3*
Y10973750D3*
Y10223750D3*
D18*
X9680523Y12544230D3*
Y13744230D3*
X9636000Y5152750D3*
Y3952750D3*
X13985750Y4517750D3*
Y3317750D3*
X14296750Y8302500D3*
X13096750D3*
X14430250Y12493500D3*
X13230250D3*
D16*
X17033750Y15763750D3*
X16811500Y13160250D3*
X16779750Y11699750D3*
X16843250Y9636000D3*
X16684500Y7477000D3*
X16716250Y5603750D3*
X5857750Y2397000D3*
X7350000D3*
X12176000Y2047750D3*
X8175500Y15763750D3*
X6492750Y15859000D3*
X10620250Y1984250D3*
D15*
X1225250Y8207250D3*
X1228250Y8461250D3*
X1222250Y8715250D3*
X1225250Y8969250D3*
X1222250Y7191250D3*
X1225250Y7445250D3*
X1219250Y7699250D3*
X1222250Y7953250D3*
Y6683250D3*
X1225300Y6937250D3*
D18*
X13001500Y16271750D3*
X11801500D3*
D15*
X1889000Y21637500D3*
X1888000Y22177250D3*
X1889000Y22717000D3*
X1793750Y4143250D3*
X1792750Y4683000D3*
X1793750Y5222750D3*
X5111623Y33718376D3*
X6201623Y33718626D3*
X10937750Y10429750D3*
X10938000Y9339750D3*
M02*
