G04 DipTrace 3.3.0.1*
G04 TopAssy.gbr*
%MOMM*%
G04 #@! TF.FileFunction,Drawing,Top*
G04 #@! TF.Part,Single*
%ADD24C,0.03333*%
%ADD38C,0.78431*%
%ADD39C,0.39216*%
%ADD40C,0.70588*%
%ADD41C,0.35294*%
%ADD42C,1.09804*%
%FSLAX35Y35*%
G04*
G71*
G90*
G75*
G01*
G04 TopAssy*
%LPD*%
X4381373Y34448623D2*
D24*
X6921373D1*
Y32638873D1*
X4381373D1*
Y34448623D1*
X13001500Y24494997D2*
X15541500D1*
Y22685250D1*
X13001500D1*
Y24494997D1*
X1388500Y34830000D2*
X3833250D1*
Y33020250D1*
X1388500D1*
Y34830000D1*
X9366123Y27812870D2*
X11906127D1*
Y26003123D1*
X9366123D1*
Y27812870D1*
X10032873Y25876127D2*
X11842627D1*
Y23336127D1*
X10032873D1*
Y25876127D1*
X1571500Y25193500D2*
X5095750D1*
Y19129250D1*
X1571500D1*
Y25193500D1*
X1452000Y32448750D2*
X7008250D1*
Y26892500D1*
X1452000D1*
Y32448750D1*
X6683250Y26241250D2*
X9223250D1*
Y24431500D1*
X6683250D1*
Y26241250D1*
X7386880Y29934995D2*
G02X7386880Y29934995I1984375J0D01*
G01*
X15986000Y25542750D2*
X17700500D1*
Y22590000D1*
X15986000D1*
Y25542750D1*
X5127500Y22186625D2*
G02X5127500Y22186625I1984375J0D01*
G01*
X13800380Y20276495D2*
G02X13800380Y20276495I1984375J0D01*
G01*
X11979000Y26892125D2*
G02X11979000Y26892125I1984375J0D01*
G01*
X12080750Y31337125D2*
G02X12080750Y31337125I1984375J0D01*
G01*
X16049500Y31353000D2*
X17764000D1*
Y28400250D1*
X16049500D1*
Y31353000D1*
X7365877Y20065877D2*
X10318627D1*
Y18351377D1*
X7365877D1*
Y20065877D1*
X7080127Y33686623D2*
X10032877D1*
Y31972123D1*
X7080127D1*
Y33686623D1*
X9858250Y11160000D2*
X11668000D1*
Y8620000D1*
X9858250D1*
Y11160000D1*
X5492627Y5968873D2*
X7302377D1*
Y3428873D1*
X5492627D1*
Y5968873D1*
X1356750Y17812000D2*
X3801500D1*
Y16002250D1*
X1356750D1*
Y17812000D1*
X7985000Y11159997D2*
X9794750D1*
Y8619997D1*
X7985000D1*
Y11159997D1*
X5572000Y8524750D2*
X8112000D1*
Y6715000D1*
X5572000D1*
Y8524750D1*
X1476250Y7699250D2*
X5000500D1*
Y1635000D1*
X1476250D1*
Y7699250D1*
X1356750Y14954500D2*
X6913000D1*
Y9398250D1*
X1356750D1*
Y14954500D1*
X8715250Y8524750D2*
X11255250D1*
Y6715000D1*
X8715250D1*
Y8524750D1*
X7680270Y13195102D2*
G02X7680270Y13195102I1984375J0D01*
G01*
X15890750Y8048500D2*
X17605250D1*
Y5095750D1*
X15890750D1*
Y8048500D1*
X7667500Y4501875D2*
G02X7667500Y4501875I1984375J0D01*
G01*
X12017250Y3866875D2*
G02X12017250Y3866875I1984375J0D01*
G01*
X11661500Y8286625D2*
G02X11661500Y8286625I1984375J0D01*
G01*
X11795000Y12477625D2*
G02X11795000Y12477625I1984375J0D01*
G01*
X15954250Y13858750D2*
X17668750D1*
Y10906000D1*
X15954250D1*
Y13858750D1*
X5079877Y3301877D2*
X8032627D1*
Y1587377D1*
X5079877D1*
Y3301877D1*
X5905377Y16732123D2*
X8858127D1*
Y15017623D1*
X5905377D1*
Y16732123D1*
X14128623Y17970370D2*
X16668627D1*
Y16160620D1*
X14128623D1*
Y17970370D1*
X10366250Y16255875D2*
G02X10366250Y16255875I1984375J0D01*
G01*
X3281524Y22336388D2*
D38*
X3232670Y22288096D1*
X3208524Y22215096D1*
Y22117950D1*
X3232670Y22044950D1*
X3281524Y21996096D1*
X3329816D1*
X3378670Y22020804D1*
X3402816Y22044950D1*
X3426962Y22093242D1*
X3475816Y22239242D1*
X3499962Y22288096D1*
X3524670Y22312242D1*
X3572962Y22336388D1*
X3645962D1*
X3694255Y22288096D1*
X3718962Y22215096D1*
Y22117950D1*
X3694254Y22044950D1*
X3645962Y21996096D1*
X3475816Y22493251D2*
Y22712251D1*
X3451670Y22784689D1*
X3426962Y22809397D1*
X3378670Y22833543D1*
X3305670D1*
X3257378Y22809397D1*
X3232670Y22784689D1*
X3208524Y22712251D1*
Y22493251D1*
X3718962D1*
X10831487Y24711688D2*
D39*
X10576267D1*
Y24626616D1*
X10588621Y24590116D1*
X10612767Y24565689D1*
X10637194Y24553616D1*
X10673413Y24541542D1*
X10734340D1*
X10770840Y24553615D1*
X10794986Y24565689D1*
X10819413Y24590115D1*
X10831486Y24626615D1*
X10831487Y24711688D1*
X10576267Y24341538D2*
X10831206D1*
X10661340Y24463111D1*
Y24280892D1*
X10741685Y27014263D2*
Y27269483D1*
X10656612D1*
X10620112Y27257129D1*
X10595685Y27232983D1*
X10583612Y27208556D1*
X10571539Y27172337D1*
Y27111410D1*
X10583612Y27074910D1*
X10595685Y27050764D1*
X10620112Y27026337D1*
X10656612Y27014264D1*
X10741685Y27014263D1*
X10480754Y27075191D2*
Y27063117D1*
X10468681Y27038691D1*
X10456608Y27026617D1*
X10432181Y27014544D1*
X10383608D1*
X10359462Y27026617D1*
X10347389Y27038691D1*
X10335035Y27063117D1*
Y27087264D1*
X10347389Y27111691D1*
X10371535Y27147910D1*
X10493108Y27269483D1*
X10322962D1*
X14165938Y23483857D2*
Y23228637D1*
X14251011D1*
X14287511Y23240991D1*
X14311938Y23265137D1*
X14324011Y23289564D1*
X14336084Y23325783D1*
Y23386710D1*
X14324011Y23423210D1*
X14311938Y23447357D1*
X14287511Y23471783D1*
X14251011Y23483857D1*
X14165938D1*
X14560235Y23483576D2*
X14438942D1*
X14426869Y23374357D1*
X14438942Y23386430D1*
X14475442Y23398783D1*
X14511662D1*
X14548162Y23386430D1*
X14572588Y23362283D1*
X14584662Y23325783D1*
Y23301637D1*
X14572588Y23265137D1*
X14548162Y23240710D1*
X14511662Y23228637D1*
X14475442D1*
X14438942Y23240710D1*
X14426869Y23253064D1*
X14414515Y23277210D1*
X7847688Y25230110D2*
Y24974891D1*
X7932761D1*
X7969261Y24987244D1*
X7993688Y25011391D1*
X8005761Y25035818D1*
X8017834Y25072037D1*
Y25132964D1*
X8005761Y25169464D1*
X7993688Y25193610D1*
X7969261Y25218037D1*
X7932761Y25230110D1*
X7847688D1*
X8120692Y25229829D2*
X8254058D1*
X8181338Y25132683D1*
X8217838D1*
X8241985Y25120610D1*
X8254058Y25108537D1*
X8266412Y25072037D1*
Y25047891D1*
X8254058Y25011391D1*
X8229912Y24986964D1*
X8193412Y24974891D1*
X8156912D1*
X8120692Y24986964D1*
X8108619Y24999318D1*
X8096265Y25023464D1*
X8283146Y29924703D2*
D38*
X8307292Y29876410D1*
X8356146Y29827557D1*
X8404438Y29803410D1*
X8501584D1*
X8550438Y29827557D1*
X8598730Y29876410D1*
X8623438Y29924703D1*
X8647584Y29997703D1*
Y30119556D1*
X8623438Y30191995D1*
X8598730Y30240849D1*
X8550438Y30289141D1*
X8501584Y30313849D1*
X8404438D1*
X8356146Y30289141D1*
X8307292Y30240849D1*
X8283146Y30191995D1*
X8126283Y30070703D2*
X7907283D1*
X7834845Y30046557D1*
X7810137Y30021849D1*
X7785991Y29973557D1*
Y29900557D1*
X7810137Y29852264D1*
X7834845Y29827557D1*
X7907283Y29803410D1*
X8126283D1*
Y30313849D1*
X7604420Y29925264D2*
Y29901118D1*
X7580274Y29852264D1*
X7556128Y29828118D1*
X7507274Y29803972D1*
X7410128D1*
X7361836Y29828118D1*
X7337690Y29852264D1*
X7312982Y29901118D1*
Y29949410D1*
X7337690Y29998264D1*
X7385982Y30070703D1*
X7629128Y30313849D1*
X7288836D1*
X9730896Y29236941D2*
Y29674380D1*
X9949334Y29455941D2*
X9511896D1*
X8199984Y22196917D2*
X8175838Y22245210D1*
X8126984Y22294064D1*
X8078692Y22318210D1*
X7981546D1*
X7932692Y22294064D1*
X7884400Y22245210D1*
X7859692Y22196917D1*
X7835546Y22123917D1*
Y22002064D1*
X7859692Y21929625D1*
X7884400Y21880771D1*
X7932692Y21832479D1*
X7981546Y21807771D1*
X8078692D1*
X8126984Y21832479D1*
X8175838Y21880771D1*
X8199984Y21929625D1*
X8356847Y22050917D2*
X8575847D1*
X8648285Y22075064D1*
X8672993Y22099771D1*
X8697139Y22148064D1*
Y22221064D1*
X8672993Y22269356D1*
X8648285Y22294064D1*
X8575847Y22318210D1*
X8356847D1*
Y21807771D1*
X9097148D2*
Y22317648D1*
X8854002Y21977917D1*
X9218440D1*
X6752234Y22884679D2*
Y22447240D1*
X6533796Y22665679D2*
X6971234D1*
X15774463Y21364604D2*
X15726170Y21340458D1*
X15677317Y21291604D1*
X15653170Y21243312D1*
Y21146166D1*
X15677317Y21097312D1*
X15726170Y21049020D1*
X15774463Y21024312D1*
X15847463Y21000166D1*
X15969316D1*
X16041755Y21024312D1*
X16090609Y21049020D1*
X16138901Y21097312D1*
X16163609Y21146166D1*
Y21243312D1*
X16138901Y21291604D1*
X16090609Y21340458D1*
X16041755Y21364604D1*
X15920463Y21521467D2*
Y21740467D1*
X15896317Y21812905D1*
X15871609Y21837613D1*
X15823317Y21861759D1*
X15750317D1*
X15702024Y21837613D1*
X15677317Y21812905D1*
X15653170Y21740467D1*
Y21521467D1*
X16163609D1*
X15653732Y22310060D2*
Y22067476D1*
X15872170Y22043330D1*
X15848024Y22067476D1*
X15823317Y22140476D1*
Y22212914D1*
X15848024Y22285914D1*
X15896317Y22334768D1*
X15969317Y22358914D1*
X16017609D1*
X16090609Y22334768D1*
X16139463Y22285914D1*
X16163609Y22212914D1*
Y22140476D1*
X16139463Y22067476D1*
X16114755Y22043330D1*
X16066463Y22018622D1*
X15086701Y19916854D2*
X15524140D1*
X15305701Y19698416D2*
Y20135854D1*
X13973667Y25804016D2*
X14021960Y25828162D1*
X14070813Y25877016D1*
X14094960Y25925308D1*
Y26022454D1*
X14070813Y26071308D1*
X14021960Y26119600D1*
X13973667Y26144308D1*
X13900667Y26168454D1*
X13778814D1*
X13706375Y26144308D1*
X13657521Y26119600D1*
X13609229Y26071308D1*
X13584521Y26022454D1*
Y25925308D1*
X13609229Y25877016D1*
X13657521Y25828162D1*
X13706375Y25804016D1*
X13827667Y25647153D2*
Y25428153D1*
X13851813Y25355715D1*
X13876521Y25331007D1*
X13924813Y25306861D1*
X13997813D1*
X14046106Y25331007D1*
X14070813Y25355715D1*
X14094960Y25428153D1*
Y25647153D1*
X13584521D1*
X14094398Y25101144D2*
Y24834413D1*
X13900106Y24979852D1*
Y24906852D1*
X13875960Y24858560D1*
X13851813Y24834413D1*
X13778813Y24809706D1*
X13730521D1*
X13657521Y24834413D1*
X13608667Y24882706D1*
X13584521Y24955706D1*
Y25028706D1*
X13608667Y25101144D1*
X13633375Y25125290D1*
X13681667Y25149998D1*
X14661429Y27251766D2*
X14223990D1*
X14442429Y27470204D2*
Y27032766D1*
X14075417Y30249016D2*
X14123710Y30273162D1*
X14172563Y30322016D1*
X14196710Y30370308D1*
Y30467454D1*
X14172563Y30516308D1*
X14123710Y30564600D1*
X14075417Y30589308D1*
X14002417Y30613454D1*
X13880564D1*
X13808125Y30589308D1*
X13759271Y30564600D1*
X13710979Y30516308D1*
X13686271Y30467454D1*
Y30370308D1*
X13710979Y30322016D1*
X13759271Y30273162D1*
X13808125Y30249016D1*
X13929417Y30092153D2*
Y29873153D1*
X13953563Y29800715D1*
X13978271Y29776007D1*
X14026563Y29751861D1*
X14099563D1*
X14147856Y29776007D1*
X14172563Y29800715D1*
X14196710Y29873153D1*
Y30092153D1*
X13686271D1*
X14099002Y29594998D2*
X14123710Y29546144D1*
X14196148Y29473144D1*
X13686271D1*
X14763179Y31696766D2*
X14325740D1*
X14544179Y31915204D2*
Y31477766D1*
X3186274Y4842138D2*
X3137420Y4793846D1*
X3113274Y4720846D1*
Y4623700D1*
X3137420Y4550700D1*
X3186274Y4501846D1*
X3234566D1*
X3283420Y4526554D1*
X3307566Y4550700D1*
X3331712Y4598992D1*
X3380566Y4744992D1*
X3404712Y4793846D1*
X3429420Y4817992D1*
X3477712Y4842138D1*
X3550712D1*
X3599005Y4793846D1*
X3623712Y4720846D1*
Y4623700D1*
X3599004Y4550700D1*
X3550712Y4501846D1*
X3380566Y4999001D2*
Y5218001D1*
X3356420Y5290439D1*
X3331712Y5315147D1*
X3283420Y5339293D1*
X3210420D1*
X3162128Y5315147D1*
X3137420Y5290439D1*
X3113274Y5218001D1*
Y4999001D1*
X3623712D1*
X3113835Y5618010D2*
X3259835Y5496156D1*
X3137981Y5642156D1*
X3113835Y5618010D1*
X6947562Y7726140D2*
D39*
Y7981359D1*
X6862489Y7981360D1*
X6825989Y7969006D1*
X6801562Y7944860D1*
X6789489Y7920433D1*
X6777416Y7884213D1*
Y7823286D1*
X6789489Y7786786D1*
X6801562Y7762640D1*
X6825989Y7738213D1*
X6862489Y7726140D1*
X6947562D1*
X6577412Y7981359D2*
X6577411Y7726421D1*
X6698985Y7896286D1*
X6516765D1*
X8996140Y9784435D2*
X9251359D1*
X9251360Y9869508D1*
X9239006Y9906008D1*
X9214860Y9930435D1*
X9190433Y9942508D1*
X9154213Y9954581D1*
X9093286D1*
X9056786Y9942508D1*
X9032640Y9930435D1*
X9008213Y9906008D1*
X8996140Y9869508D1*
Y9784435D1*
X9057067Y10045366D2*
X9044994D1*
X9020567Y10057439D1*
X9008494Y10069512D1*
X8996421Y10093939D1*
Y10142512D1*
X9008494Y10166658D1*
X9020567Y10178731D1*
X9044994Y10191085D1*
X9069140D1*
X9093567Y10178731D1*
X9129786Y10154585D1*
X9251359Y10033012D1*
Y10203158D1*
X6291237Y4804435D2*
X6036017D1*
Y4719362D1*
X6048371Y4682862D1*
X6072517Y4658435D1*
X6096944Y4646362D1*
X6133163Y4634289D1*
X6194090D1*
X6230590Y4646362D1*
X6254736Y4658435D1*
X6279163Y4682862D1*
X6291236Y4719362D1*
X6291237Y4804435D1*
X6290956Y4410139D2*
Y4531431D1*
X6181736Y4543504D1*
X6193809Y4531431D1*
X6206163Y4494931D1*
Y4458712D1*
X6193809Y4422212D1*
X6169663Y4397785D1*
X6133163Y4385712D1*
X6109017D1*
X6072517Y4397785D1*
X6048090Y4422212D1*
X6036017Y4458712D1*
Y4494931D1*
X6048090Y4531431D1*
X6060444Y4543504D1*
X6084590Y4555858D1*
X9879688Y7513610D2*
Y7258391D1*
X9964761D1*
X10001261Y7270744D1*
X10025688Y7294891D1*
X10037761Y7319318D1*
X10049834Y7355537D1*
Y7416464D1*
X10037761Y7452964D1*
X10025688Y7477110D1*
X10001261Y7501537D1*
X9964761Y7513610D1*
X9879688D1*
X10152692Y7513329D2*
X10286058D1*
X10213338Y7416183D1*
X10249838D1*
X10273985Y7404110D1*
X10286058Y7392037D1*
X10298412Y7355537D1*
Y7331391D1*
X10286058Y7294891D1*
X10261912Y7270464D1*
X10225412Y7258391D1*
X10188912D1*
X10152692Y7270464D1*
X10140619Y7282818D1*
X10128265Y7306964D1*
X8610119Y13184809D2*
D38*
X8634265Y13136517D1*
X8683119Y13087663D1*
X8731411Y13063517D1*
X8828557D1*
X8877411Y13087663D1*
X8925703Y13136517D1*
X8950411Y13184809D1*
X8974557Y13257809D1*
Y13379663D1*
X8950411Y13452102D1*
X8925703Y13500955D1*
X8877411Y13549248D1*
X8828557Y13573956D1*
X8731411D1*
X8683119Y13549248D1*
X8634265Y13500956D1*
X8610119Y13452102D1*
X8453256Y13330809D2*
X8234256D1*
X8161818Y13306663D1*
X8137110Y13281956D1*
X8112964Y13233663D1*
Y13160663D1*
X8137110Y13112371D1*
X8161818Y13087663D1*
X8234256Y13063517D1*
X8453256D1*
Y13573956D1*
X7834247Y13064079D2*
X7956101Y13210079D1*
X7810101Y13088225D1*
X7834247Y13064079D1*
X7628531Y13185371D2*
Y13161225D1*
X7604385Y13112371D1*
X7580239Y13088225D1*
X7531385Y13064079D1*
X7434239D1*
X7385946Y13088225D1*
X7361800Y13112371D1*
X7337092Y13161225D1*
Y13209517D1*
X7361800Y13258371D1*
X7410092Y13330809D1*
X7653239Y13573955D1*
X7312946D1*
X10024289Y12497051D2*
Y12934490D1*
X10242727Y12716051D2*
X9805289D1*
X10699619Y4541527D2*
D40*
X10677887Y4584990D1*
X10633919Y4628958D1*
X10590456Y4650690D1*
X10503024D1*
X10459056Y4628958D1*
X10415593Y4584990D1*
X10393356Y4541527D1*
X10371624Y4475827D1*
Y4366158D1*
X10393356Y4300964D1*
X10415593Y4256995D1*
X10459056Y4213532D1*
X10503024Y4191295D1*
X10590456D1*
X10633919Y4213532D1*
X10677887Y4256995D1*
X10699619Y4300964D1*
X10840795Y4410127D2*
X11037895D1*
X11103090Y4431858D1*
X11125327Y4454095D1*
X11147058Y4497558D1*
Y4563258D1*
X11125327Y4606721D1*
X11103090Y4628958D1*
X11037895Y4650690D1*
X10840795D1*
Y4191295D1*
X11507066D2*
Y4650184D1*
X11288235Y4344427D1*
X11616229D1*
X11867074Y4650184D2*
X11757406Y4518784D1*
X11888806Y4628453D1*
X11867074Y4650184D1*
X9266469Y5220837D2*
Y4827142D1*
X9069874Y5023737D2*
X9463569D1*
X15089734Y3877167D2*
D38*
X15065588Y3925460D1*
X15016734Y3974314D1*
X14968442Y3998460D1*
X14871296D1*
X14822442Y3974314D1*
X14774150Y3925460D1*
X14749442Y3877167D1*
X14725296Y3804167D1*
Y3682314D1*
X14749442Y3609875D1*
X14774150Y3561021D1*
X14822442Y3512729D1*
X14871296Y3488021D1*
X14968442D1*
X15016734Y3512729D1*
X15065588Y3561021D1*
X15089734Y3609875D1*
X15246597Y3731167D2*
X15465597D1*
X15538035Y3755314D1*
X15562743Y3780021D1*
X15586889Y3828314D1*
Y3901314D1*
X15562743Y3949606D1*
X15538035Y3974314D1*
X15465597Y3998460D1*
X15246597D1*
Y3488021D1*
X16035190Y3997898D2*
X15792606D1*
X15768460Y3779460D1*
X15792606Y3803606D1*
X15865606Y3828314D1*
X15938044D1*
X16011044Y3803606D1*
X16059898Y3755314D1*
X16084044Y3682314D1*
Y3634021D1*
X16059898Y3561021D1*
X16011044Y3512167D1*
X15938044Y3488021D1*
X15865606D1*
X15792606Y3512167D1*
X15768460Y3536875D1*
X15743752Y3585167D1*
X16362761Y3997898D2*
X16240907Y3851898D1*
X16386907Y3973752D1*
X16362761Y3997898D1*
X13641984Y4564929D2*
Y4127490D1*
X13423546Y4345929D2*
X13860984D1*
X13656167Y7198516D2*
X13704460Y7222662D1*
X13753313Y7271516D1*
X13777460Y7319808D1*
Y7416954D1*
X13753313Y7465808D1*
X13704460Y7514100D1*
X13656167Y7538808D1*
X13583167Y7562954D1*
X13461314D1*
X13388875Y7538808D1*
X13340021Y7514100D1*
X13291729Y7465808D1*
X13267021Y7416954D1*
Y7319808D1*
X13291729Y7271516D1*
X13340021Y7222662D1*
X13388875Y7198516D1*
X13510167Y7041653D2*
Y6822653D1*
X13534313Y6750215D1*
X13559021Y6725507D1*
X13607313Y6701361D1*
X13680313D1*
X13728606Y6725507D1*
X13753313Y6750215D1*
X13777460Y6822653D1*
Y7041653D1*
X13267021D1*
X13776898Y6495644D2*
Y6228913D1*
X13582606Y6374352D1*
Y6301352D1*
X13558460Y6253060D1*
X13534313Y6228913D1*
X13461313Y6204206D1*
X13413021D1*
X13340021Y6228913D1*
X13291167Y6277206D1*
X13267021Y6350206D1*
Y6423206D1*
X13291167Y6495644D1*
X13315875Y6519790D1*
X13364167Y6544498D1*
X13776898Y5925489D2*
X13630898Y6047343D1*
X13752752Y5901343D1*
X13776898Y5925489D1*
X14343929Y8646266D2*
X13906490D1*
X14124929Y8864704D2*
Y8427266D1*
X13789667Y11389516D2*
X13837960Y11413662D1*
X13886813Y11462516D1*
X13910960Y11510808D1*
Y11607954D1*
X13886813Y11656808D1*
X13837960Y11705100D1*
X13789667Y11729808D1*
X13716667Y11753954D1*
X13594814D1*
X13522375Y11729808D1*
X13473521Y11705100D1*
X13425229Y11656808D1*
X13400521Y11607954D1*
Y11510808D1*
X13425229Y11462516D1*
X13473521Y11413662D1*
X13522375Y11389516D1*
X13643667Y11232653D2*
Y11013653D1*
X13667813Y10941215D1*
X13692521Y10916507D1*
X13740813Y10892361D1*
X13813813D1*
X13862106Y10916507D1*
X13886813Y10941215D1*
X13910960Y11013653D1*
Y11232653D1*
X13400521D1*
X13813252Y10735498D2*
X13837960Y10686644D1*
X13910398Y10613644D1*
X13400521D1*
X13910398Y10334928D2*
X13764398Y10456781D1*
X13886252Y10310781D1*
X13910398Y10334928D1*
X14477429Y12837266D2*
X14039990D1*
X14258429Y13055704D2*
Y12618266D1*
X15506149Y17163148D2*
D41*
Y17392846D1*
X15429584D1*
X15396734Y17381727D1*
X15374749Y17359996D1*
X15363884Y17338012D1*
X15353018Y17305414D1*
Y17250580D1*
X15363884Y17217730D1*
X15374749Y17195999D1*
X15396734Y17174014D1*
X15429584Y17163149D1*
X15506149Y17163148D1*
X15216730Y17163401D2*
X15249580Y17174267D1*
X15271564Y17207117D1*
X15282430Y17261699D1*
Y17294549D1*
X15271564Y17349130D1*
X15249580Y17381980D1*
X15216730Y17392846D1*
X15194998D1*
X15162148Y17381980D1*
X15140417Y17349130D1*
X15129298Y17294549D1*
Y17261699D1*
X15140417Y17207117D1*
X15162148Y17174267D1*
X15194998Y17163401D1*
X15216730D1*
X15140417Y17207117D2*
X15271564Y17349130D1*
X12360917Y15167766D2*
D38*
X12409210Y15191912D1*
X12458063Y15240766D1*
X12482210Y15289058D1*
Y15386204D1*
X12458063Y15435058D1*
X12409210Y15483350D1*
X12360917Y15508058D1*
X12287917Y15532204D1*
X12166064D1*
X12093625Y15508058D1*
X12044771Y15483350D1*
X11996479Y15435058D1*
X11971771Y15386204D1*
Y15289058D1*
X11996479Y15240766D1*
X12044771Y15191912D1*
X12093625Y15167766D1*
X12214917Y15010903D2*
Y14791903D1*
X12239063Y14719465D1*
X12263771Y14694757D1*
X12312063Y14670611D1*
X12385063D1*
X12433356Y14694757D1*
X12458063Y14719465D1*
X12482210Y14791903D1*
Y15010903D1*
X11971771D1*
X12481648Y14391894D2*
X12335648Y14513748D1*
X12457502Y14367748D1*
X12481648Y14391894D1*
X13048679Y16615516D2*
X12611240D1*
X12829679Y16833954D2*
Y16396516D1*
X6099609Y35327806D2*
X6293901Y34817368D1*
X6488194Y35327806D1*
X6645056D2*
X6669203Y35303660D1*
X6693910Y35327806D1*
X6669203Y35352514D1*
X6645056Y35327806D1*
X6669203Y35157660D2*
Y34817368D1*
X6850773Y35157660D2*
Y34817368D1*
Y35060514D2*
X6923773Y35133514D1*
X6972627Y35157660D1*
X7045065D1*
X7093919Y35133514D1*
X7118065Y35060514D1*
Y34817368D1*
X7274928Y35230099D2*
X7323782Y35254806D1*
X7396782Y35327245D1*
Y34817368D1*
X2226109Y34565806D2*
Y34055368D1*
X2517547D1*
X2674410Y34298514D2*
X2893410D1*
X2965849Y34322660D1*
X2990556Y34347368D1*
X3014703Y34395660D1*
Y34468660D1*
X2990556Y34516953D1*
X2965849Y34541660D1*
X2893410Y34565806D1*
X2674410D1*
Y34055368D1*
X8406505Y32851306D2*
Y32462722D1*
X8382359Y32389722D1*
X8357651Y32365576D1*
X8309359Y32340868D1*
X8260505D1*
X8212213Y32365576D1*
X8188067Y32389722D1*
X8163359Y32462722D1*
Y32511014D1*
X8563368Y32753599D2*
X8612222Y32778306D1*
X8685222Y32850745D1*
Y32340868D1*
X16820255Y30216056D2*
Y29827472D1*
X16796109Y29754472D1*
X16771401Y29730326D1*
X16723109Y29705618D1*
X16674255D1*
X16625963Y29730326D1*
X16601817Y29754472D1*
X16577109Y29827472D1*
Y29875764D1*
X17001826Y30094203D2*
Y30118349D1*
X17025972Y30167203D1*
X17050118Y30191349D1*
X17098972Y30215495D1*
X17196118D1*
X17244410Y30191349D1*
X17268556Y30167203D1*
X17293264Y30118349D1*
Y30070056D1*
X17268556Y30021203D1*
X17220264Y29948764D1*
X16977118Y29705618D1*
X17317410D1*
X16820255Y24215306D2*
Y23826722D1*
X16796109Y23753722D1*
X16771401Y23729576D1*
X16723109Y23704868D1*
X16674255D1*
X16625963Y23729576D1*
X16601817Y23753722D1*
X16577109Y23826722D1*
Y23875014D1*
X17220264Y23704868D2*
Y24214745D1*
X16977118Y23875014D1*
X17341556D1*
X7104755Y19897306D2*
Y19508722D1*
X7080609Y19435722D1*
X7055901Y19411576D1*
X7007609Y19386868D1*
X6958755D1*
X6910463Y19411576D1*
X6886317Y19435722D1*
X6861609Y19508722D1*
Y19557014D1*
X7310472Y19896745D2*
X7577203D1*
X7431764Y19702453D1*
X7504764D1*
X7553056Y19678306D1*
X7577203Y19654160D1*
X7601910Y19581160D1*
Y19532868D1*
X7577203Y19459868D1*
X7528910Y19411014D1*
X7455910Y19386868D1*
X7382910D1*
X7310472Y19411014D1*
X7286326Y19435722D1*
X7261618Y19484014D1*
X6131359Y18722556D2*
X6325651Y18212118D1*
X6519944Y18722556D1*
X6676806D2*
X6700953Y18698410D1*
X6725660Y18722556D1*
X6700953Y18747264D1*
X6676806Y18722556D1*
X6700953Y18552410D2*
Y18212118D1*
X6882523Y18552410D2*
Y18212118D1*
Y18455264D2*
X6955523Y18528264D1*
X7004377Y18552410D1*
X7076815D1*
X7125669Y18528264D1*
X7149815Y18455264D1*
Y18212118D1*
X7331386Y18600703D2*
Y18624849D1*
X7355532Y18673703D1*
X7379678Y18697849D1*
X7428532Y18721995D1*
X7525678D1*
X7573970Y18697849D1*
X7598116Y18673703D1*
X7622824Y18624849D1*
Y18576556D1*
X7598116Y18527703D1*
X7549824Y18455264D1*
X7306678Y18212118D1*
X7646970D1*
X2321359Y17262056D2*
Y16751618D1*
X2612797D1*
X2769660Y16994764D2*
X2988660D1*
X3061099Y17018910D1*
X3085806Y17043618D1*
X3109953Y17091910D1*
Y17164910D1*
X3085806Y17213203D1*
X3061099Y17237910D1*
X2988660Y17262056D1*
X2769660D1*
Y16751618D1*
X3388669Y17261495D2*
X3266815Y17115495D1*
X3412815Y17237349D1*
X3388669Y17261495D1*
X5612505Y16277806D2*
Y15889222D1*
X5588359Y15816222D1*
X5563651Y15792076D1*
X5515359Y15767368D1*
X5466505D1*
X5418213Y15792076D1*
X5394067Y15816222D1*
X5369359Y15889222D1*
Y15937514D1*
X5769368Y16180099D2*
X5818222Y16204806D1*
X5891222Y16277245D1*
Y15767368D1*
X6169938Y16277245D2*
X6048085Y16131245D1*
X6194085Y16253099D1*
X6169938Y16277245D1*
X6850755Y1990306D2*
Y1601722D1*
X6826609Y1528722D1*
X6801901Y1504576D1*
X6753609Y1479868D1*
X6704755D1*
X6656463Y1504576D1*
X6632317Y1528722D1*
X6607609Y1601722D1*
Y1650014D1*
X7032326Y1868453D2*
Y1892599D1*
X7056472Y1941453D1*
X7080618Y1965599D1*
X7129472Y1989745D1*
X7226618D1*
X7274910Y1965599D1*
X7299056Y1941453D1*
X7323764Y1892599D1*
Y1844306D1*
X7299056Y1795453D1*
X7250764Y1723014D1*
X7007618Y1479868D1*
X7347910D1*
X7626627Y1989745D2*
X7504773Y1843745D1*
X7650773Y1965599D1*
X7626627Y1989745D1*
X17137755Y12785306D2*
Y12396722D1*
X17113609Y12323722D1*
X17088901Y12299576D1*
X17040609Y12274868D1*
X16991755D1*
X16943463Y12299576D1*
X16919317Y12323722D1*
X16894609Y12396722D1*
Y12445014D1*
X17343472Y12784745D2*
X17610203D1*
X17464764Y12590453D1*
X17537764D1*
X17586056Y12566306D1*
X17610203Y12542160D1*
X17634910Y12469160D1*
Y12420868D1*
X17610203Y12347868D1*
X17561910Y12299014D1*
X17488910Y12274868D1*
X17415910D1*
X17343472Y12299014D1*
X17319326Y12323722D1*
X17294618Y12372014D1*
X17913627Y12784745D2*
X17791773Y12638745D1*
X17937773Y12760599D1*
X17913627Y12784745D1*
X17042505Y6625806D2*
Y6237222D1*
X17018359Y6164222D1*
X16993651Y6140076D1*
X16945359Y6115368D1*
X16896505D1*
X16848213Y6140076D1*
X16824067Y6164222D1*
X16799359Y6237222D1*
Y6285514D1*
X17442514Y6115368D2*
Y6625245D1*
X17199368Y6285514D1*
X17563806D1*
X17842523Y6625245D2*
X17720669Y6479245D1*
X17866669Y6601099D1*
X17842523Y6625245D1*
X14354609Y19643306D2*
X14548901Y19132868D1*
X14743194Y19643306D1*
X15046056D2*
X14997203Y19619160D1*
X14948910Y19570306D1*
X14924203Y19522014D1*
X14900056Y19449014D1*
Y19327160D1*
X14924203Y19254722D1*
X14948910Y19205868D1*
X14997203Y19157576D1*
X15046056Y19132868D1*
X15143203D1*
X15191495Y19157576D1*
X15240349Y19205868D1*
X15264495Y19254722D1*
X15288641Y19327160D1*
Y19449014D1*
X15264495Y19522014D1*
X15240349Y19570306D1*
X15191495Y19619160D1*
X15143203Y19643306D1*
X15046056D1*
X15445504Y19376014D2*
X15664504D1*
X15736942Y19400160D1*
X15761650Y19424868D1*
X15785796Y19473160D1*
Y19546160D1*
X15761650Y19594453D1*
X15736942Y19619160D1*
X15664504Y19643306D1*
X15445504D1*
Y19132868D1*
X11052609Y1482306D2*
X11246901Y971868D1*
X11441194Y1482306D1*
X11744056D2*
X11695203Y1458160D1*
X11646910Y1409306D1*
X11622203Y1361014D1*
X11598056Y1288014D1*
Y1166160D1*
X11622203Y1093722D1*
X11646910Y1044868D1*
X11695203Y996576D1*
X11744056Y971868D1*
X11841203D1*
X11889495Y996576D1*
X11938349Y1044868D1*
X11962495Y1093722D1*
X11986641Y1166160D1*
Y1288014D1*
X11962495Y1361014D1*
X11938349Y1409306D1*
X11889495Y1458160D1*
X11841203Y1482306D1*
X11744056D1*
X12143504Y1215014D2*
X12362504D1*
X12434942Y1239160D1*
X12459650Y1263868D1*
X12483796Y1312160D1*
Y1385160D1*
X12459650Y1433453D1*
X12434942Y1458160D1*
X12362504Y1482306D1*
X12143504D1*
Y971868D1*
X12762513Y1481745D2*
X12640659Y1335745D1*
X12786659Y1457599D1*
X12762513Y1481745D1*
X3464359Y30914556D2*
Y30404118D1*
X3755797D1*
X3912660Y30647264D2*
X4131660D1*
X4204099Y30671410D1*
X4228806Y30696118D1*
X4252953Y30744410D1*
Y30817410D1*
X4228806Y30865703D1*
X4204099Y30890410D1*
X4131660Y30914556D1*
X3912660D1*
Y30404118D1*
X3877109Y12277306D2*
Y11766868D1*
X4168547D1*
X4325410Y12010014D2*
X4544410D1*
X4616849Y12034160D1*
X4641556Y12058868D1*
X4665703Y12107160D1*
Y12180160D1*
X4641556Y12228453D1*
X4616849Y12253160D1*
X4544410Y12277306D1*
X4325410D1*
Y11766868D1*
X4944419Y12276745D2*
X4822565Y12130745D1*
X4968565Y12252599D1*
X4944419Y12276745D1*
X4992359Y36096393D2*
D42*
Y35483979D1*
X4686545Y35789793D2*
X5298959D1*
X12993359Y19840393D2*
Y19227979D1*
X12687545Y19533793D2*
X13299959D1*
X9754859Y2346143D2*
Y1733729D1*
X9449045Y2039543D2*
X10061459D1*
X5545812Y33437486D2*
D39*
Y33182267D1*
X5630885D1*
X5667385Y33194621D1*
X5691812Y33218767D1*
X5703885Y33243194D1*
X5715958Y33279413D1*
Y33340340D1*
X5703885Y33376840D1*
X5691812Y33400986D1*
X5667385Y33425413D1*
X5630885Y33437486D1*
X5545812D1*
X5794390Y33388632D2*
X5818817Y33400986D1*
X5855317Y33437205D1*
Y33182267D1*
X10656861Y9995561D2*
X10401641D1*
Y9910488D1*
X10413995Y9873988D1*
X10438141Y9849561D1*
X10462568Y9837488D1*
X10498787Y9825415D1*
X10559714D1*
X10596214Y9837488D1*
X10620360Y9849561D1*
X10644787Y9873988D1*
X10656861Y9910488D1*
Y9995561D1*
X10608007Y9746983D2*
X10620360Y9722557D1*
X10656580Y9686057D1*
X10401641D1*
M02*
